<?xml version="1.0" standalone="no"?>
<!DOCTYPE svg PUBLIC "-//W3C//DTD SVG 20010904//EN"
 "http://www.w3.org/TR/2001/REC-SVG-20010904/DTD/svg10.dtd">
<svg version="1.0" xmlns="http://www.w3.org/2000/svg"
 width="269.000000pt" height="269.000000pt" viewBox="0 0 269.000000 269.000000"
 preserveAspectRatio="xMidYMid meet">
<metadata>
Created by potrace 1.11, written by Peter Selinger 2001-2013
</metadata>
<g transform="translate(0.000000,269.000000) scale(0.100000,-0.100000)"
fill="#000000" stroke="none">
<path d="M0 1445 l0 -595 25 0 c22 0 25 -4 25 -35 0 -24 5 -35 15 -35 12 0 15
-13 15 -60 l0 -60 1305 0 1305 0 0 605 0 605 -45 0 -45 0 0 50 c0 47 -2 50
-25 50 -22 0 -25 4 -25 35 l0 35 -1275 0 -1275 0 0 -595z"/>
</g>
</svg>
