<?xml version="1.0" standalone="no"?>
<!DOCTYPE svg PUBLIC "-//W3C//DTD SVG 20010904//EN"
 "http://www.w3.org/TR/2001/REC-SVG-20010904/DTD/svg10.dtd">
<svg version="1.0" xmlns="http://www.w3.org/2000/svg"
 width="136.000000pt" height="136.000000pt" viewBox="0 0 136.000000 136.000000"
 preserveAspectRatio="xMidYMid meet">
<metadata>
Created by potrace 1.11, written by Peter Selinger 2001-2013
</metadata>
<g transform="translate(0.000000,136.000000) scale(0.100000,-0.100000)"
fill="#000000" stroke="none">
<path d="M40 810 l0 -550 500 0 500 0 0 550 0 550 -500 0 -500 0 0 -550z m445
230 c26 -77 50 -140 55 -140 5 0 29 63 55 140 l47 141 96 -3 97 -3 3 -362 2
-363 -80 0 -80 0 0 115 c0 103 10 235 25 350 10 67 -10 29 -60 -117 l-48 -138
-57 0 -58 0 -47 140 c-46 138 -68 181 -59 118 17 -132 24 -230 24 -340 l0
-128 -80 0 -80 0 0 358 c0 197 3 362 7 365 3 4 48 7 99 7 l92 0 47 -140z"/>
<path d="M1190 620 l0 -480 -455 0 -455 0 0 -70 0 -70 525 0 525 0 0 550 0
550 -70 0 -70 0 0 -480z"/>
</g>
</svg>
