<?xml version="1.0" standalone="no"?>
<!DOCTYPE svg PUBLIC "-//W3C//DTD SVG 20010904//EN"
 "http://www.w3.org/TR/2001/REC-SVG-20010904/DTD/svg10.dtd">
<svg version="1.0" xmlns="http://www.w3.org/2000/svg"
 width="225.000000pt" height="225.000000pt" viewBox="0 0 225.000000 225.000000"
 preserveAspectRatio="xMidYMid meet">
<metadata>
Created by potrace 1.14, written by Peter Selinger 2001-2017
</metadata>
<g transform="translate(0.000000,225.000000) scale(0.100000,-0.100000)"
fill="#000000" stroke="none">
<path d="M2 1228 l3 -1023 85 0 85 0 3 -102 3 -103 1029 0 1030 0 0 1035 0
1035 -103 0 -103 0 1 90 0 90 -1018 0 -1017 0 2 -1022z m2138 -193 l0 -935
-930 0 -930 0 0 53 0 52 877 0 877 0 1 883 0 882 53 0 52 0 0 -935z m-1360
243 c129 -362 238 -654 241 -650 4 4 38 93 74 197 134 379 175 495 275 775 56
157 105 296 109 310 6 21 13 25 47 25 43 0 38 12 58 -145 4 -30 9 -64 11 -75
1 -11 6 -47 10 -80 4 -33 9 -69 11 -80 2 -10 6 -35 8 -55 8 -58 28 -202 32
-240 3 -19 13 -96 24 -170 11 -74 22 -155 25 -180 7 -58 11 -91 30 -225 9 -60
18 -127 21 -147 l5 -38 -94 0 -94 0 -7 52 c-4 29 -9 67 -11 83 -6 43 -61 449
-81 590 -9 66 -17 131 -19 145 -2 14 -4 36 -5 50 0 20 -3 22 -10 10 -8 -15
-84 -223 -202 -555 -33 -93 -63 -179 -68 -190 -5 -11 -22 -56 -38 -100 l-29
-80 -119 -3 -119 -2 -170 469 c-93 258 -171 468 -173 467 -4 -4 -8 -29 -17
-96 -4 -30 -9 -62 -10 -70 -2 -8 -6 -37 -9 -65 -4 -27 -9 -61 -11 -75 -5 -34
-62 -433 -70 -490 -3 -25 -8 -54 -10 -65 -2 -11 -4 -32 -4 -47 -1 -27 -3 -28
-56 -28 -53 0 -55 1 -55 28 0 24 12 118 25 192 2 14 7 50 10 80 3 30 12 98 20
150 17 116 23 163 30 215 5 39 41 307 51 375 3 19 9 69 15 110 6 41 12 85 14
96 2 12 7 48 11 80 3 33 8 66 10 74 1 8 3 20 3 26 1 6 18 10 39 10 l37 -1 235
-657z"/>
</g>
</svg>
