<svg width="57" height="68" viewBox="0 0 57 68" fill="none" xmlns="http://www.w3.org/2000/svg">
<path d="M55.0002 67.0001L55.5002 63.2905C55.5002 61.7905 54.7641 59.5544 52.5002 57.2905C52.0002 56.7905 50.5006 56 48.5006 55C46.5006 54 45.2188 54.3998 44.0002 53.7905C42.9818 53.2814 42.0006 52.1316 40.5006 51.5C38.7539 50.7646 37.0006 50.5 37.0006 50.5C36.1727 50.2342 35.7892 49.0912 35.4544 48.1228C35.1197 47.1544 35.1307 45.9903 35.4851 44.8866L42.167 24.0791C42.8759 21.8717 42.898 19.5435 42.2284 17.6067C41.5588 15.6698 40.2524 14.283 38.5967 13.7513C36.9409 13.2196 35.0713 13.5865 33.3993 14.7714C31.7272 15.9563 30.3896 17.862 29.6808 20.0694L17.6534 57.5229L14.438 41.8003C14.1884 40.5798 13.7038 39.4987 13.0225 38.6425C12.3411 37.7862 11.4818 37.1784 10.5126 36.8672L9.15787 36.4321C6.45772 35.565 3.3327 37.7795 2.17673 41.3792C1.7972 42.5611 1.66471 43.7993 1.79572 44.9569L4.27953 67.0001L55.0002 67.0001ZM52.5002 13.7513L55.652 11.5178Z" fill="#515CC4"/>
<path d="M42.1664 5.5L43.5028 1.33851M52.5304 26.9976L55.652 28M17.3784 13.769L20.5 14.7714M28.5 5.5L27.2379 1.84911M52.5002 13.7513L55.652 11.5178M55.0002 67.0001L55.5002 63.2905C55.5002 61.7905 54.7641 59.5544 52.5002 57.2905C52.0002 56.7905 50.5006 56 48.5006 55C46.5006 54 45.2188 54.3998 44.0002 53.7905C42.9818 53.2814 42.0006 52.1316 40.5006 51.5C38.7539 50.7646 37.0006 50.5 37.0006 50.5C36.1727 50.2342 35.7892 49.0912 35.4544 48.1228C35.1197 47.1544 35.1307 45.9903 35.4851 44.8866L42.167 24.0791C42.8759 21.8717 42.898 19.5435 42.2284 17.6067C41.5588 15.6698 40.2524 14.283 38.5967 13.7513C36.9409 13.2196 35.0713 13.5865 33.3993 14.7714C31.7272 15.9563 30.3896 17.862 29.6808 20.0694L17.6534 57.5229L14.438 41.8003C14.1884 40.5798 13.7038 39.4987 13.0225 38.6425C12.3411 37.7862 11.4818 37.1784 10.5126 36.8672L9.15787 36.4321C6.45772 35.565 3.3327 37.7795 2.17673 41.3792C1.7972 42.5611 1.66471 43.7993 1.79572 44.9569L4.27953 67.0001L55.0002 67.0001Z" stroke="#515CC4" stroke-width="2" stroke-linecap="round" stroke-linejoin="round"/>
</svg>
