<svg xmlns="http://www.w3.org/2000/svg" viewBox="0 0 45.03 221.18"><defs><style>.cls-1{fill:#b3b3b3;opacity:0.28;}</style></defs><g id="Layer_2" data-name="Layer 2"><g id="Layer_2-2" data-name="Layer 2"><path class="cls-1" d="M31.17,162.47c3.36-15.4,16.8-30,13.28-46-1.52-6.94-6.08-12.61-13.13-17.32C25,94.89,17.7,91.27,13.9,85.47c-5-7.58-2.48-16.33.6-24,2.88-7.22,6.61-14.26,9.16-21.56C28.53,26,23,13.29,17,0,17,0,5.74,4.82,6.87,7.39c5.25,12.05,10.81,24.14,7,36.84C9.59,58.28-3.08,73.16.69,87.88,4.15,101.32,24.43,105.65,31,117.8c8.46,15.58-4.27,31.56-9.51,46.48-6.71,19.08,4.53,37.38,3.64,56.51-.07,1.44,4.74-1.55,5.07-1.77,1.75-1.12,5.65-3.43,5.85-5.35C37.82,196.41,27.41,179.74,31.17,162.47Z"/></g></g></svg>