<svg xmlns="http://www.w3.org/2000/svg" viewBox="0 0 40.62 245.58"><defs><style>.cls-1{fill:#b3b3b3;opacity:0.38;}</style></defs><g id="Layer_2" data-name="Layer 2"><g id="Layer_2-2" data-name="Layer 2"><path class="cls-1" d="M36.64,129.15c6.93-13.4,4-30.22-2.5-43.16C28.25,74.22,19.24,64.2,14,52.1c-7.37-16.92-.59-33,11.53-45.74.65-.69,5.27-5.07,4.14-6.2s-5.81,3.72-6.21,4.13c-11.56,12.17-25.09,28-23.26,46,1.32,13.15,9.79,24,16.64,34.85C24.94,98,31.05,111.66,29,127.2c-1.31,10.13-7.4,16.58-13.32,24.43-6.36,8.4-11,16.9-11.12,27.66-.09,10.57,3.31,20.33,5.09,30.62,2.17,12.52-.92,23.5-6.95,34.54-1.43,2.61,2.65-.06,3.12-.42a24.71,24.71,0,0,0,6.38-7.09c5.55-9.6,9.73-20.13,9.17-31.39-.42-8.36-3.29-16.33-4.65-24.54-1.64-9.87-1.69-20.19,3.65-29C25.27,144,32.29,137.54,36.64,129.15Z"/></g></g></svg>