<svg xmlns="http://www.w3.org/2000/svg" viewBox="0 0 45.1 323.19"><defs><style>.cls-1{fill:#b3b3b3;opacity:0.38;}</style></defs><g id="Layer_2" data-name="Layer 2"><g id="Layer_2-2" data-name="Layer 2"><path class="cls-1" d="M.44,95.45a91.28,91.28,0,0,0,7.71,29.46c4.88,11,12,21,16.58,32.07A32.85,32.85,0,0,1,25,182.59c-3.09,7.51-7.62,14.31-10.18,22.06-6.11,18.48,3.09,36.58,11,52.94,4.21,8.74,8.74,17.94,9.26,27.8C35.73,298,29.14,307.5,19.49,315c-1.8,1.4-6,4.56-6.3,7s1.77.59,3.07-.41c17.34-13.46,33.52-31.47,27.58-54.8-5-19.53-18.83-36.14-20.12-56.75-.59-9.61,2.84-18,7.17-26.32,3.93-7.55,8-15.4,7.91-24.14-.14-11.85-7.3-21.92-12.72-32-5.33-9.85-10.31-20-12.76-31C6.22,64.73,21,31.63,10.89.16c-.35-1.1-5.8,3.75-6.18,4.12C3.43,5.56.12,8.37.59,10.46,7,38.91-2,66.88.44,95.45Z"/></g></g></svg>