<svg xmlns="http://www.w3.org/2000/svg" viewBox="0 0 51.35 320.44"><defs><style>.cls-1{opacity:0.28;}.cls-2{fill:#b3b3b3;}</style></defs><g id="Layer_2" data-name="Layer 2"><g id="Layer_2-2" data-name="Layer 2"><g class="cls-1"><path class="cls-2" d="M22.56,117.9C15.46,112,10,104.18,11.06,93.25c1.16-11.86,7.2-21.07,13.73-29.09S41.08,46.25,42.54,34.38C44.44,18.83,28.42,7.15,19.43.18,17-1.69,8.2,11.53,9.27,12.37c8.31,6.53,23.5,17.54,22.88,31.73-.4,9.2-6.9,14.33-11.72,20.35C8.51,79.34-9.93,106.62,6.52,125.91c10.06,11.8,34.57,18.34,33.59,39.22a32.44,32.44,0,0,1-1.48,8.1L38,175.29a6.81,6.81,0,0,1-1.06,1.21C32.15,180.58,27.27,184.22,23,189c-4.78,5.34-9.56,11.73-11.3,19.47s.7,14.2,4.34,20.59c4.36,7.63,9.84,14.4,10.92,23.92.92,8-1,15.51-4,22.6-6.24,14.52-14,27.47-10.91,44.69.21,1.1,5-3.74,5.06-3.82,1.13-1.28,4.77-4.91,4.53-7.07-.9-8-.48-15.75,2.15-23.28,2.27-6.48,5.55-12.34,8.32-18.52,5.66-12.63,8.08-27.4,1.38-40.19-3.6-6.87-9-13.34-10.9-21.31A21.31,21.31,0,0,1,23.23,195c0-.12.24-.59.44-1.05l-.76.23a2.75,2.75,0,0,0,1-.73A2.14,2.14,0,0,0,24,193c-.14-.31.31-.5.81-.54l.22-.21c10.14-8.64,21.36-17.4,25.24-32.44C56.31,136.42,35.23,128.37,22.56,117.9Z"/><path class="cls-2" d="M23.67,194c3.43-1.12,2.2-1.61,1.17-1.52-.28.28-.63.67-1,1Z"/></g></g></g></svg>